# xmcd
#
# Track frame offsets: 
#        150
#        24175
#        43794
#        63251
#        82538
#        99213
#        117659
#        142579
#        160349
#        184709
#        205752
#        221588
#        240986
#        262306
#        277561
#
# Disc length: 3993 seconds
#
# Revision: 0
# Processed by: cddbd v1.5.1PL0 Copyright (c) Steve Scherf et al.
# Submitted via: ExactAudioCopy v0.95a5
#
DISCID=ba0f970f
DTITLE=Keith Martin - Validated
DYEAR=2004
DGENRE=R&B
TTITLE0=Validated
TTITLE1=Groove On
TTITLE2=Peach Cobbler
TTITLE3=My Thang
TTITLE4=Babylove
TTITLE5=Keepin It Real
TTITLE6=Sweat
TTITLE7=The Only One
TTITLE8=Cry No More
TTITLE9=Coming Home
TTITLE10=Whatever U Need
TTITLE11=Why Me
TTITLE12=Work It Out
TTITLE13=Starship
TTITLE14=Thank You
EXTD=
EXTT0=
EXTT1=
EXTT2=
EXTT3=
EXTT4=
EXTT5=
EXTT6=
EXTT7=
EXTT8=
EXTT9=
EXTT10=
EXTT11=
EXTT12=
EXTT13=
EXTT14=
PLAYORDER=
